<svg width="24" height="24" viewBox="0 0 24 24" fill="none" xmlns="http://www.w3.org/2000/svg">
<path fill-rule="evenodd" clip-rule="evenodd" d="M10.2001 0C4.56674 0 0 4.56668 0 10.2C0 15.8333 4.56674 20.4 10.2001 20.4C12.5843 20.4 14.7774 19.582 16.5142 18.2113L21.9515 23.6485C22.4201 24.1172 23.1799 24.1172 23.6485 23.6485C24.1172 23.1799 24.1172 22.4201 23.6485 21.9515L18.2113 16.5143C19.5821 14.7775 20.4002 12.5843 20.4002 10.2C20.4002 4.56668 15.8335 0 10.2001 0ZM15.7926 15.6373C17.1588 14.2324 18.0002 12.3144 18.0002 10.2C18.0002 5.89217 14.508 2.39999 10.2001 2.39999C5.89224 2.39999 2.40002 5.89217 2.40002 10.2C2.40002 14.5078 5.89224 18 10.2001 18C12.3145 18 14.2323 17.1587 15.6373 15.7926C15.6605 15.7647 15.6852 15.7377 15.7114 15.7115C15.7376 15.6853 15.7647 15.6606 15.7926 15.6373Z" fill="#B3BBC2"/>
</svg>